<svg width="20" height="20" viewBox="0 0 20 20" fill="none" xmlns="http://www.w3.org/2000/svg">
<g clip-path="url(#clip0_17132_438550)">
<path d="M13.4784 0.621953C12.395 0.220039 11.2234 5.19912e-09 10.0002 5.19912e-09C8.77695 -3.90573e-05 7.60523 0.220039 6.52191 0.621953L5.65234 9.99996L6.52191 19.378C7.60519 19.78 8.77691 20 10.0002 20C11.2233 20 12.3951 19.78 13.4784 19.378L14.3479 10L13.4784 0.621953Z" fill="#FFDA44"/>
<path d="M20.0003 9.9991C20.0003 5.69949 17.2865 2.03398 13.4785 0.621094V19.3772C17.2865 17.9641 20.0002 14.2988 20.0003 9.9991Z" fill="#D80027"/>
<path d="M0 9.99902C0 14.2987 2.71375 17.9641 6.52168 19.3771L6.52172 0.621094C2.71375 2.03398 0 5.69937 0 9.99902Z" fill="#0052B4"/>
</g>
<defs>
<clipPath id="clip0_17132_438550">
<rect width="20" height="20" fill="white"/>
</clipPath>
</defs>
</svg>
