<svg width="20" height="20" viewBox="0 0 20 20" fill="none" xmlns="http://www.w3.org/2000/svg">
<g clip-path="url(#clip0_17132_438716)">
<path d="M14.3484 0.992266C13.0337 0.356562 11.5588 0 10.0006 0C8.44239 0 6.96746 0.356562 5.65277 0.992266L4.7832 10L5.65277 19.0077C6.96746 19.6434 8.44239 20 10.0006 20C11.5588 20 13.0337 19.6434 14.3484 19.0077L15.218 10L14.3484 0.992266Z" fill="#0052B4"/>
<path d="M5.65219 0.994141C2.30727 2.6116 0 6.03695 0 10.0015C0 13.9661 2.30727 17.3914 5.65219 19.0089V0.994141Z" fill="#0052B4"/>
<path d="M14.3477 0.994141V19.0089C17.6926 17.3914 19.9998 13.9661 19.9998 10.0015C19.9998 6.03695 17.6926 2.6116 14.3477 0.994141Z" fill="#0052B4"/>
<path d="M10.0009 9.34766L8.58789 9.99984V11.3042L10.0009 12.1738L11.414 11.3042V9.99984L10.0009 9.34766Z" fill="#0052B4"/>
<circle cx="4" cy="10" r="1" fill="#FFAE00"/>
<circle cx="6" cy="6" r="1" fill="#FFAE00"/>
<circle cx="6" cy="14" r="1" fill="#FFAE00"/>
<circle cx="14" cy="6" r="1" fill="#FFAE00"/>
<circle cx="14" cy="14" r="1" fill="#FFAE00"/>
<circle cx="16" cy="10" r="1" fill="#FFAE00"/>
<circle cx="10" cy="4" r="1" fill="#FFAE00"/>
<circle cx="10" cy="16" r="1" fill="#FFAE00"/>
</g>
<defs>
<clipPath id="clip0_17132_438716">
<rect width="20" height="20" fill="white"/>
</clipPath>
</defs>
</svg>
