<svg width="17" height="20" viewBox="0 0 17 20" fill="none" xmlns="http://www.w3.org/2000/svg">
<path d="M14.6673 8.74935V5.66602C14.6673 4.26588 14.6673 3.56582 14.3948 3.03104C14.1552 2.56063 13.7727 2.17818 13.3023 1.9385C12.7675 1.66602 12.0674 1.66602 10.6673 1.66602H5.33398C3.93385 1.66602 3.23379 1.66602 2.69901 1.9385C2.2286 2.17818 1.84615 2.56063 1.60647 3.03104C1.33398 3.56582 1.33398 4.26588 1.33398 5.66602V14.3327C1.33398 15.7328 1.33398 16.4329 1.60647 16.9677C1.84615 17.4381 2.2286 17.8205 2.69901 18.0602C3.23379 18.3327 3.93385 18.3327 5.33398 18.3327H8.00065M9.66732 9.16602H4.66732M6.33398 12.4993H4.66732M11.334 5.83268H4.66732M13.0007 17.4993V12.4993M10.5007 14.9993H15.5007" stroke="#FFAE00" stroke-width="1.66667" stroke-linecap="round" stroke-linejoin="round"/>
</svg>
