<svg width="18" height="14" viewBox="0 0 18 14" fill="none" xmlns="http://www.w3.org/2000/svg">
<path d="M16.5 6.99935L6.5 6.99935M16.5 1.99935L6.5 1.99935M16.5 11.9993L6.5 11.9993M3.16667 6.99935C3.16667 7.45959 2.79357 7.83268 2.33333 7.83268C1.8731 7.83268 1.5 7.45959 1.5 6.99935C1.5 6.53911 1.8731 6.16602 2.33333 6.16602C2.79357 6.16602 3.16667 6.53911 3.16667 6.99935ZM3.16667 1.99935C3.16667 2.45959 2.79357 2.83268 2.33333 2.83268C1.8731 2.83268 1.5 2.45959 1.5 1.99935C1.5 1.53911 1.8731 1.16602 2.33333 1.16602C2.79357 1.16602 3.16667 1.53911 3.16667 1.99935ZM3.16667 11.9993C3.16667 12.4596 2.79357 12.8327 2.33333 12.8327C1.8731 12.8327 1.5 12.4596 1.5 11.9993C1.5 11.5391 1.8731 11.166 2.33333 11.166C2.79357 11.166 3.16667 11.5391 3.16667 11.9993Z" stroke="#FFAE00" stroke-width="1.66667" stroke-linecap="round" stroke-linejoin="round"/>
</svg>
