<svg width="28" height="28" viewBox="0 0 28 28" fill="none" xmlns="http://www.w3.org/2000/svg">
<path d="M0.5 14C0.5 6.54416 6.54416 0.5 14 0.5C21.4558 0.5 27.5 6.54416 27.5 14C27.5 21.4558 21.4558 27.5 14 27.5C6.54416 27.5 0.5 21.4558 0.5 14Z" fill="#0C111D"/>
<path d="M0.5 14C0.5 6.54416 6.54416 0.5 14 0.5C21.4558 0.5 27.5 6.54416 27.5 14C27.5 21.4558 21.4558 27.5 14 27.5C6.54416 27.5 0.5 21.4558 0.5 14Z" stroke="#182230"/>
<path d="M9 11.5L13.0825 14.3577C13.413 14.5891 13.5783 14.7048 13.7581 14.7497C13.9169 14.7892 14.0831 14.7892 14.2419 14.7497C14.4217 14.7048 14.587 14.5891 14.9175 14.3577L19 11.5M11.4 18H16.6C17.4401 18 17.8601 18 18.181 17.8365C18.4632 17.6927 18.6927 17.4632 18.8365 17.181C19 16.8601 19 16.4401 19 15.6V12.4C19 11.5599 19 11.1399 18.8365 10.819C18.6927 10.5368 18.4632 10.3073 18.181 10.1635C17.8601 10 17.4401 10 16.6 10H11.4C10.5599 10 10.1399 10 9.81901 10.1635C9.53677 10.3073 9.3073 10.5368 9.16349 10.819C9 11.1399 9 11.5599 9 12.4V15.6C9 16.4401 9 16.8601 9.16349 17.181C9.3073 17.4632 9.53677 17.6927 9.81901 17.8365C10.1399 18 10.5599 18 11.4 18Z" stroke="#FFAE00" stroke-linecap="round" stroke-linejoin="round"/>
</svg>
