<svg width="12" height="12" viewBox="0 0 12 12" fill="none" xmlns="http://www.w3.org/2000/svg">
<g clip-path="url(#clip0_17347_170)">
<path d="M8.08625 0.373172C7.43624 0.132023 6.73323 3.11947e-09 5.99931 3.11947e-09C5.26539 -2.34344e-05 4.56236 0.132023 3.91237 0.373172L3.39062 5.99998L3.91237 11.6268C4.56234 11.868 5.26537 12 5.99931 12C6.73321 12 7.43626 11.868 8.08625 11.6268L8.60797 6L8.08625 0.373172Z" fill="#FFDA44"/>
<path d="M11.999 5.99985C11.999 3.42009 10.3707 1.22078 8.08594 0.373047V11.6267C10.3707 10.7789 11.999 8.57966 11.999 5.99985Z" fill="#D80027"/>
<path d="M0 5.9998C0 8.57964 1.62825 10.7789 3.91301 11.6267L3.91303 0.373047C1.62825 1.22078 0 3.42002 0 5.9998Z" fill="#0052B4"/>
</g>
<defs>
<clipPath id="clip0_17347_170">
<rect width="12" height="12" fill="white"/>
</clipPath>
</defs>
</svg>
