<svg width="96" height="32" viewBox="0 0 96 32" fill="none" xmlns="http://www.w3.org/2000/svg">
<g clip-path="url(#clip0_17331_571)">
<path d="M91.8508 9.47164L87.6925 20.7084L82.7774 9.46875H78.6309L85.5309 25.4601C84.7476 27.5899 82.5742 27.9025 80.2683 27.8706V31.977C84.8418 32.1767 88.2786 30.2551 89.8836 25.9752L96.0032 9.47454H91.8538L91.8508 9.47164Z" fill="#FFAE00"/>
<path d="M72.8028 9.46811V11.8729C71.5364 10.2958 69.8843 9.46811 67.5902 9.46811C63.0932 9.3813 59.4797 13.5976 59.6152 18.0339C59.4768 22.5019 63.0667 26.6864 67.5902 26.5996C69.8843 26.5996 71.5364 25.7662 72.8028 24.1833V26.5996H76.9817V9.46811H72.8028ZM71.4805 21.3068C68.6091 23.946 63.6999 22.1691 63.8088 18.112C63.7617 15.603 65.7054 13.6584 68.2763 13.6931C72.4199 13.6005 74.2311 18.601 71.4805 21.3068Z" fill="#FFAE00"/>
<path d="M55.7929 12.327C50.9749 6.90979 41.8131 9.64736 40.7205 16.6823C40.4466 21.104 40.6675 26.6862 40.5851 31.9993H44.7669L44.7993 25.3551C49.7174 28.3936 56.5939 25.5808 57.7866 19.9668C57.9073 19.362 57.9692 18.7311 57.9692 18.0742C57.978 15.8315 57.3007 13.9968 55.7929 12.3241V12.327ZM45.3618 20.2909C43.6537 17.452 45.9184 13.6408 49.2992 13.7016C51.7789 13.7016 53.808 15.6955 53.808 18.1321C53.7815 22.687 47.5352 24.2844 45.3647 20.2909H45.3618Z" fill="#FFAE00"/>
<path d="M38.7357 16.0986C37.543 10.4903 30.6665 7.68912 25.7484 10.719V4.11523H21.5665C21.5665 8.50518 21.5636 14.2321 21.5636 17.6497C21.4782 20.2194 22.4912 22.7139 24.482 24.4039C30.9021 29.879 40.4614 24.346 38.7357 16.0986ZM30.266 22.5258C26.891 22.5895 24.6293 18.7783 26.3315 15.9365C27.1413 14.3594 28.9024 13.4855 30.7313 13.6938C36.3385 14.426 35.9586 22.3348 30.263 22.5258H30.266Z" fill="white"/>
<path d="M17.1044 6.45903C16.8128 5.31308 16.2827 4.25972 15.5759 3.35106C14.8986 2.48001 14.0563 1.74498 13.0933 1.18358C12.042 0.570085 10.8463 0.170736 9.5682 0.0434075C9.27664 0.0144692 8.98215 0 8.68176 0C6.28456 0 4.11117 0.957859 2.53856 2.50895C0.971839 4.05715 0 6.19859 0 8.56285C0 8.85802 0.0147248 9.1503 0.0441745 9.43679C0.173753 10.6956 0.580158 11.8734 1.20155 12.9123C1.57556 13.5373 2.02614 14.1103 2.54151 14.6196C2.8095 14.8859 3.09516 15.1318 3.39849 15.3605C4.32027 16.0579 5.38634 16.5788 6.5496 16.8681C7.23284 17.0389 7.94846 17.1286 8.6847 17.1286H17.3694V8.56285C17.3694 7.8365 17.2781 7.1333 17.1044 6.45903ZM13.0256 12.8457H8.6847C8.31658 12.8457 7.9573 12.8023 7.61568 12.7155C7.03552 12.5708 6.50248 12.3104 6.04013 11.9631C5.88993 11.8473 5.74563 11.7258 5.6131 11.5927C5.35395 11.338 5.13013 11.0515 4.94165 10.739C4.62949 10.221 4.42628 9.63067 4.36444 9.00271C4.34971 8.85802 4.34088 8.71333 4.34088 8.56285C4.34088 7.38217 4.8268 6.31145 5.6131 5.5359C6.39941 4.76035 7.4861 4.28287 8.6847 4.28287C8.8349 4.28287 8.98215 4.29155 9.12645 4.30602C9.76551 4.36969 10.3604 4.56936 10.8875 4.87611C11.3676 5.15681 11.7887 5.52433 12.1274 5.9584C12.4808 6.41273 12.7458 6.93941 12.8901 7.51239C12.9755 7.84807 13.0226 8.20112 13.0226 8.56285V12.8457H13.0256Z" fill="white"/>
<path d="M17.3703 21.2402V26.6199C17.3703 27.0771 17.3143 27.5198 17.2053 27.9423C17.0198 28.6629 16.687 29.3227 16.2423 29.8928C16.0951 30.0809 15.939 30.2574 15.7682 30.4224C15.4443 30.7407 15.0761 31.0214 14.6756 31.2529C14.013 31.6378 13.2591 31.8895 12.4551 31.9706C12.2725 31.9908 12.0841 31.9995 11.8956 31.9995C10.3848 31.9995 9.0154 31.3976 8.02589 30.4253C7.03344 29.45 6.42383 28.1073 6.42383 26.6199C6.42383 26.4347 6.43266 26.2524 6.45033 26.07C6.53279 25.28 6.789 24.5392 7.18068 23.8881C7.53997 23.292 8.00822 22.7711 8.56482 22.3515C9.14498 21.9145 9.81937 21.5875 10.5527 21.4052C10.9826 21.2981 11.4332 21.2402 11.8956 21.2402H17.3703Z" fill="#FFAE00"/>
</g>
<defs>
<clipPath id="clip0_17331_571">
<rect width="96" height="32" fill="white"/>
</clipPath>
</defs>
</svg>
